<svg width="284" height="77" viewBox="0 0 284 77" fill="none" xmlns="http://www.w3.org/2000/svg">
<path d="M0.483398 42V36.1333L17.4023 15.2373H2.39502V9.78809H25.9717V14.8418L8.32764 36.5728H26.6528V42H0.483398ZM34.3397 15.501V9.78809H40.5141V15.501H34.3397ZM34.3397 42V18.665H40.5141V42H34.3397ZM56.6165 9.78809V21.6313C58.6087 19.3022 60.9891 18.1377 63.7576 18.1377C65.1785 18.1377 66.4603 18.4014 67.6028 18.9287C68.7454 19.4561 69.6023 20.1299 70.1736 20.9502C70.7596 21.7705 71.1551 22.6787 71.3602 23.6748C71.5799 24.6709 71.6897 26.2163 71.6897 28.311V42H65.5154V29.6733C65.5154 27.2271 65.3982 25.6743 65.1639 25.0151C64.9295 24.356 64.512 23.8359 63.9114 23.4551C63.3255 23.0596 62.5857 22.8618 61.6922 22.8618C60.6668 22.8618 59.7513 23.1108 58.9456 23.6089C58.1399 24.1069 57.5467 24.8613 57.1658 25.8721C56.7996 26.8682 56.6165 28.3477 56.6165 30.3105V42H50.4422V9.78809H56.6165ZM86.1882 25.7842L80.5852 24.7734C81.215 22.5176 82.299 20.8477 83.8371 19.7637C85.3752 18.6797 87.6604 18.1377 90.6926 18.1377C93.4465 18.1377 95.4973 18.4673 96.8449 19.1265C98.1926 19.771 99.1374 20.5986 99.6794 21.6094C100.236 22.6055 100.514 24.4438 100.514 27.1245L100.448 34.3315C100.448 36.3823 100.544 37.8984 100.734 38.8799C100.939 39.8467 101.313 40.8867 101.855 42H95.7463C95.5852 41.5898 95.3874 40.9819 95.153 40.1763C95.0505 39.8101 94.9772 39.5684 94.9333 39.4512C93.8786 40.4766 92.7507 41.2456 91.5495 41.7583C90.3483 42.271 89.0666 42.5273 87.7043 42.5273C85.302 42.5273 83.405 41.8755 82.0134 40.5718C80.6364 39.2681 79.948 37.6201 79.948 35.6279C79.948 34.3096 80.2629 33.1377 80.8928 32.1123C81.5227 31.0723 82.4016 30.2812 83.5295 29.7393C84.6721 29.1826 86.3127 28.6992 88.4514 28.2891C91.3371 27.7471 93.3366 27.2417 94.4499 26.7729V26.1577C94.4499 24.9712 94.1569 24.1289 93.571 23.6309C92.9851 23.1182 91.8791 22.8618 90.2531 22.8618C89.1545 22.8618 88.2976 23.0815 87.6823 23.521C87.0671 23.9458 86.569 24.7002 86.1882 25.7842ZM94.4499 30.7939C93.6589 31.0576 92.4064 31.3726 90.6926 31.7388C88.9787 32.105 87.8581 32.4639 87.3308 32.8154C86.5251 33.3867 86.1223 34.1118 86.1223 34.9907C86.1223 35.855 86.4445 36.6021 87.0891 37.2319C87.7336 37.8618 88.5539 38.1768 89.55 38.1768C90.6633 38.1768 91.7253 37.8105 92.736 37.0781C93.4831 36.5215 93.9738 35.8403 94.2082 35.0347C94.3693 34.5073 94.4499 33.5039 94.4499 32.0244V30.7939ZM131.624 42H125.889V38.5723C124.937 39.9053 123.809 40.9014 122.505 41.5605C121.216 42.2051 119.913 42.5273 118.594 42.5273C115.914 42.5273 113.614 41.4507 111.695 39.2974C109.791 37.1294 108.838 34.1118 108.838 30.2446C108.838 26.2896 109.769 23.2866 111.629 21.2358C113.489 19.1704 115.84 18.1377 118.682 18.1377C121.29 18.1377 123.546 19.2217 125.45 21.3896V9.78809H131.624V42ZM115.145 29.8271C115.145 32.3174 115.489 34.1191 116.177 35.2324C117.173 36.8438 118.565 37.6494 120.352 37.6494C121.773 37.6494 122.982 37.0488 123.978 35.8477C124.974 34.6318 125.472 32.8228 125.472 30.4204C125.472 27.7397 124.988 25.8135 124.022 24.6416C123.055 23.4551 121.817 22.8618 120.308 22.8618C118.843 22.8618 117.613 23.4478 116.617 24.6196C115.635 25.7769 115.145 27.5127 115.145 29.8271ZM157.413 42V9.78809H167.147L172.992 31.7607L178.77 9.78809H188.526V42H182.484V16.6436L176.09 42H169.828L163.455 16.6436V42H157.413ZM203.157 25.7842L197.554 24.7734C198.183 22.5176 199.267 20.8477 200.805 19.7637C202.344 18.6797 204.629 18.1377 207.661 18.1377C210.415 18.1377 212.466 18.4673 213.813 19.1265C215.161 19.771 216.106 20.5986 216.648 21.6094C217.204 22.6055 217.483 24.4438 217.483 27.1245L217.417 34.3315C217.417 36.3823 217.512 37.8984 217.702 38.8799C217.908 39.8467 218.281 40.8867 218.823 42H212.715C212.554 41.5898 212.356 40.9819 212.121 40.1763C212.019 39.8101 211.946 39.5684 211.902 39.4512C210.847 40.4766 209.719 41.2456 208.518 41.7583C207.317 42.271 206.035 42.5273 204.673 42.5273C202.27 42.5273 200.373 41.8755 198.982 40.5718C197.605 39.2681 196.916 37.6201 196.916 35.6279C196.916 34.3096 197.231 33.1377 197.861 32.1123C198.491 31.0723 199.37 30.2812 200.498 29.7393C201.64 29.1826 203.281 28.6992 205.42 28.2891C208.305 27.7471 210.305 27.2417 211.418 26.7729V26.1577C211.418 24.9712 211.125 24.1289 210.539 23.6309C209.953 23.1182 208.847 22.8618 207.221 22.8618C206.123 22.8618 205.266 23.0815 204.651 23.521C204.035 23.9458 203.537 24.7002 203.157 25.7842ZM211.418 30.7939C210.627 31.0576 209.375 31.3726 207.661 31.7388C205.947 32.105 204.826 32.4639 204.299 32.8154C203.493 33.3867 203.091 34.1118 203.091 34.9907C203.091 35.855 203.413 36.6021 204.057 37.2319C204.702 37.8618 205.522 38.1768 206.518 38.1768C207.632 38.1768 208.694 37.8105 209.704 37.0781C210.451 36.5215 210.942 35.8403 211.177 35.0347C211.338 34.5073 211.418 33.5039 211.418 32.0244V30.7939ZM227.191 42V9.78809H233.365V42H227.191ZM243.316 15.501V9.78809H249.49V15.501H243.316ZM243.316 42V18.665H249.49V42H243.316ZM259.22 42V9.78809H265.395V26.8828L272.624 18.665H280.226L272.25 27.1904L280.797 42H274.14L268.273 31.519L265.395 34.5293V42H259.22Z" fill="black"/>
<path d="M3.31201 73L0.0649414 59.3994H2.87598L4.92627 68.7417L7.4126 59.3994H10.6782L13.0625 68.8994L15.1499 59.3994H17.9146L14.6118 73H11.6987L8.98975 62.832L6.29004 73H3.31201ZM25.0247 73V59.3994H35.1092V61.7002H27.7708V64.7153H34.5989V67.0068H27.7708V70.7085H35.3689V73H25.0247ZM43.4068 59.3994H48.8434C49.9195 59.3994 50.7205 59.4458 51.2462 59.5386C51.7781 59.6252 52.2512 59.8107 52.6656 60.0952C53.0862 60.3797 53.4356 60.7601 53.714 61.2363C53.9923 61.7064 54.1314 62.2352 54.1314 62.8228C54.1314 63.4598 53.9583 64.0443 53.6119 64.5762C53.2717 65.1081 52.8079 65.507 52.2203 65.7729C53.0491 66.0142 53.6861 66.4255 54.1314 67.0068C54.5768 67.5882 54.7994 68.2716 54.7994 69.0571C54.7994 69.6756 54.6541 70.2786 54.3634 70.8662C54.0789 71.4476 53.6861 71.9146 53.1852 72.2671C52.6904 72.6134 52.0781 72.8268 51.3482 72.9072C50.8906 72.9567 49.7866 72.9876 48.0362 73H43.4068V59.3994ZM46.1529 61.6631V64.8081H47.9527C49.0227 64.8081 49.6876 64.7926 49.9474 64.7617C50.4174 64.7061 50.7854 64.5452 51.0514 64.2793C51.3235 64.0072 51.4596 63.6515 51.4596 63.2124C51.4596 62.7918 51.3421 62.4517 51.107 62.1919C50.8782 61.9259 50.5349 61.7651 50.0772 61.7095C49.8051 61.6785 49.0227 61.6631 47.7301 61.6631H46.1529ZM46.1529 67.0718V70.7085H48.6949C49.6845 70.7085 50.3123 70.6807 50.5782 70.625C50.9864 70.5508 51.3173 70.3714 51.5709 70.0869C51.8307 69.7962 51.9605 69.4097 51.9605 68.9272C51.9605 68.519 51.8616 68.1727 51.6637 67.8882C51.4658 67.6037 51.1782 67.3965 50.8009 67.2666C50.4298 67.1367 49.6196 67.0718 48.3702 67.0718H46.1529ZM85.8488 71.3394L84.2717 73.3525C83.4986 72.9753 82.7564 72.4557 82.0451 71.7939C81.4947 72.2887 80.9102 72.6536 80.2917 72.8887C79.6732 73.1237 78.9372 73.2412 78.0837 73.2412C76.389 73.2412 75.1149 72.765 74.2614 71.8125C73.5996 71.0765 73.2688 70.2292 73.2688 69.2705C73.2688 68.3984 73.5285 67.616 74.048 66.9233C74.5676 66.2244 75.3438 65.6183 76.3767 65.105C75.9128 64.5545 75.5633 64.0319 75.3283 63.5371C75.0933 63.0361 74.9758 62.563 74.9758 62.1177C74.9758 61.2951 75.3036 60.5993 75.9592 60.0303C76.621 59.4551 77.5611 59.1675 78.7795 59.1675C79.9546 59.1675 80.8731 59.4674 81.5349 60.0674C82.1967 60.6673 82.5275 61.4002 82.5275 62.2661C82.5275 62.8166 82.3636 63.3392 82.0358 63.834C81.708 64.3288 81.0463 64.8885 80.0505 65.5132L81.9431 68.0088C82.1657 67.613 82.3575 67.0965 82.5183 66.4595L84.8747 66.9976C84.6397 67.8325 84.4356 68.4448 84.2624 68.8345C84.0892 69.2179 83.9037 69.5396 83.7058 69.7993C83.9965 70.0715 84.3706 70.3714 84.8283 70.6992C85.2922 71.0208 85.6324 71.2342 85.8488 71.3394ZM78.7517 63.9453L79.4567 63.4072C79.9763 63.0052 80.236 62.6063 80.236 62.2104C80.236 61.8765 80.1092 61.592 79.8557 61.3569C79.6083 61.1219 79.2712 61.0044 78.8444 61.0044C78.43 61.0044 78.1053 61.1095 77.8703 61.3198C77.6353 61.5239 77.5178 61.762 77.5178 62.0342C77.5178 62.3558 77.7157 62.7454 78.1115 63.2031L78.7517 63.9453ZM77.7312 66.7749C77.1312 67.078 76.6828 67.4429 76.3859 67.8696C76.0891 68.2964 75.9406 68.7324 75.9406 69.1777C75.9406 69.7406 76.1231 70.2013 76.488 70.5601C76.8591 70.9126 77.3539 71.0889 77.9724 71.0889C78.3806 71.0889 78.7733 71.0085 79.1506 70.8477C79.5279 70.6868 79.9392 70.4209 80.3845 70.0498L77.7312 66.7749ZM104.216 59.3994H106.962V66.7656C106.962 67.9346 106.996 68.6922 107.064 69.0386C107.182 69.5952 107.46 70.0436 107.899 70.3838C108.345 70.7178 108.951 70.8848 109.718 70.8848C110.497 70.8848 111.084 70.7271 111.48 70.4116C111.876 70.09 112.114 69.6973 112.195 69.2334C112.275 68.7695 112.315 67.9995 112.315 66.9233V59.3994H115.061V66.543C115.061 68.1758 114.987 69.3293 114.839 70.0034C114.69 70.6776 114.415 71.2466 114.013 71.7104C113.617 72.1743 113.085 72.5454 112.417 72.8237C111.749 73.0959 110.877 73.2319 109.801 73.2319C108.502 73.2319 107.516 73.0835 106.842 72.7866C106.174 72.4836 105.645 72.0939 105.255 71.6177C104.866 71.1353 104.609 70.6312 104.485 70.1055C104.306 69.3262 104.216 68.1758 104.216 66.6543V59.3994ZM123.582 73V59.3994H126.328V73H123.582ZM145.632 59.3994H150.651C151.783 59.3994 152.646 59.486 153.239 59.6592C154.037 59.8942 154.721 60.3117 155.29 60.9116C155.859 61.5116 156.292 62.2476 156.589 63.1196C156.885 63.9855 157.034 65.0555 157.034 66.3296C157.034 67.4491 156.895 68.4139 156.616 69.2241C156.276 70.2137 155.791 71.0146 155.16 71.627C154.684 72.0908 154.04 72.4526 153.23 72.7124C152.624 72.9041 151.814 73 150.8 73H145.632V59.3994ZM148.378 61.7002V70.7085H150.428C151.195 70.7085 151.749 70.6652 152.089 70.5786C152.534 70.4673 152.902 70.2786 153.193 70.0127C153.49 69.7467 153.731 69.3107 153.917 68.7046C154.102 68.0923 154.195 67.2604 154.195 66.209C154.195 65.1576 154.102 64.3504 153.917 63.7876C153.731 63.2248 153.471 62.7856 153.137 62.4702C152.803 62.1548 152.38 61.9414 151.866 61.8301C151.483 61.7435 150.731 61.7002 149.612 61.7002H148.378ZM165.072 73V59.3994H175.156V61.7002H167.818V64.7153H174.646V67.0068H167.818V70.7085H175.416V73H165.072ZM182.749 68.5747L185.421 68.3149C185.582 69.2118 185.906 69.8704 186.395 70.291C186.89 70.7116 187.554 70.9219 188.389 70.9219C189.274 70.9219 189.939 70.7363 190.384 70.3652C190.836 69.988 191.061 69.5488 191.061 69.0479C191.061 68.7262 190.965 68.4541 190.774 68.2314C190.588 68.0026 190.26 67.8047 189.79 67.6377C189.469 67.5264 188.736 67.3285 187.592 67.0439C186.12 66.679 185.087 66.2306 184.493 65.6987C183.658 64.9504 183.241 64.0381 183.241 62.9619C183.241 62.2692 183.435 61.6229 183.825 61.0229C184.221 60.4168 184.787 59.9561 185.523 59.6406C186.265 59.3252 187.159 59.1675 188.204 59.1675C189.911 59.1675 191.194 59.5417 192.054 60.29C192.92 61.0384 193.374 62.0373 193.418 63.2866L190.672 63.4072C190.554 62.7083 190.301 62.2074 189.911 61.9043C189.527 61.5951 188.949 61.4404 188.176 61.4404C187.378 61.4404 186.754 61.6043 186.302 61.9321C186.011 62.1424 185.866 62.4238 185.866 62.7764C185.866 63.098 186.002 63.3732 186.274 63.6021C186.621 63.8927 187.462 64.1958 188.798 64.5112C190.134 64.8267 191.12 65.1545 191.757 65.4946C192.4 65.8286 192.901 66.2894 193.26 66.877C193.625 67.4583 193.807 68.1789 193.807 69.0386C193.807 69.8179 193.591 70.5477 193.158 71.228C192.725 71.9084 192.113 72.4155 191.321 72.7495C190.529 73.0773 189.543 73.2412 188.362 73.2412C186.642 73.2412 185.322 72.8454 184.4 72.0537C183.479 71.2559 182.928 70.0962 182.749 68.5747ZM201.734 73V59.3994H204.48V73H201.734ZM219.133 67.9995V65.708H225.052V71.126C224.476 71.6826 223.641 72.1743 222.547 72.6011C221.458 73.0216 220.354 73.2319 219.235 73.2319C217.812 73.2319 216.572 72.9351 215.515 72.3413C214.457 71.7414 213.662 70.8879 213.13 69.7808C212.598 68.6675 212.332 67.4583 212.332 66.1533C212.332 64.737 212.629 63.4784 213.223 62.3774C213.817 61.2765 214.686 60.4323 215.83 59.8447C216.702 59.3932 217.787 59.1675 219.086 59.1675C220.775 59.1675 222.092 59.5231 223.038 60.2344C223.991 60.9395 224.603 61.9167 224.875 63.166L222.148 63.6763C221.956 63.0083 221.594 62.4826 221.062 62.0991C220.537 61.7095 219.878 61.5146 219.086 61.5146C217.886 61.5146 216.931 61.895 216.22 62.6558C215.515 63.4165 215.162 64.5452 215.162 66.042C215.162 67.6562 215.521 68.8685 216.238 69.6787C216.956 70.4827 217.896 70.8848 219.058 70.8848C219.634 70.8848 220.209 70.7734 220.784 70.5508C221.365 70.3219 221.863 70.0467 222.278 69.7251V67.9995H219.133ZM233.321 73V59.3994H235.993L241.56 68.4819V59.3994H244.111V73H241.356L235.873 64.1309V73H233.321ZM252.724 73V59.3994H262.809V61.7002H255.47V64.7153H262.298V67.0068H255.47V70.7085H263.068V73H252.724ZM271.106 73V59.3994H276.886C278.339 59.3994 279.394 59.5231 280.05 59.7705C280.711 60.0117 281.24 60.4447 281.636 61.0693C282.032 61.694 282.23 62.4084 282.23 63.2124C282.23 64.2329 281.93 65.0771 281.33 65.7451C280.73 66.4069 279.833 66.8244 278.639 66.9976C279.233 67.3439 279.722 67.7243 280.105 68.1387C280.495 68.5531 281.018 69.2891 281.673 70.3467L283.334 73H280.05L278.064 70.0405C277.359 68.9829 276.877 68.318 276.617 68.0459C276.357 67.7676 276.082 67.5789 275.791 67.48C275.501 67.3748 275.04 67.3223 274.409 67.3223H273.852V73H271.106ZM273.852 65.1514H275.884C277.201 65.1514 278.024 65.0957 278.352 64.9844C278.68 64.873 278.936 64.6813 279.122 64.4092C279.307 64.137 279.4 63.7969 279.4 63.3887C279.4 62.931 279.277 62.563 279.029 62.2847C278.788 62.0002 278.445 61.8208 277.999 61.7466C277.777 61.7157 277.109 61.7002 275.995 61.7002H273.852V65.1514Z" fill="black"/>
</svg>
